<?xml version="1.0" standalone="no"?>
<!DOCTYPE svg PUBLIC "-//W3C//DTD SVG 20010904//EN"
 "http://www.w3.org/TR/2001/REC-SVG-20010904/DTD/svg10.dtd">
<svg version="1.0" xmlns="http://www.w3.org/2000/svg"
 width="350.000000pt" height="350.000000pt" viewBox="0 0 350.000000 350.000000"
 preserveAspectRatio="xMidYMid meet">
<metadata>
Created by potrace 1.11, written by Peter Selinger 2001-2013
</metadata>
<g transform="translate(0.000000,350.000000) scale(0.100000,-0.100000)"
fill="#000000" stroke="none">
<path d="M0 1750 l0 -1750 1750 0 1750 0 0 1750 0 1750 -1750 0 -1750 0 0
-1750z m2138 1464 c410 -54 628 -225 714 -559 20 -78 23 -113 22 -265 -1 -157
-4 -186 -27 -275 -103 -383 -381 -631 -812 -721 -76 -16 -134 -19 -383 -19
l-292 0 0 -427 0 -428 23 -4 c12 -3 123 -12 247 -21 124 -9 235 -18 248 -21
21 -4 22 -9 22 -99 l0 -95 -645 0 -646 0 3 97 3 98 163 19 162 19 0 1223 c0
1156 -1 1223 -17 1228 -10 2 -67 12 -128 21 -60 9 -122 18 -137 21 l-28 6 0
98 0 97 433 7 c237 4 493 11 567 15 170 10 362 4 508 -15z"/>
<path d="M1473 3008 l-113 -10 0 -698 0 -698 28 -6 c60 -12 389 -18 462 -8
159 23 288 82 385 177 96 95 141 185 177 355 26 123 28 370 5 477 -47 213
-168 335 -392 394 -96 25 -370 34 -552 17z"/>
</g>
</svg>
